<svg xmlns:dc="http://purl.org/dc/elements/1.1/" xmlns:cc="http://creativecommons.org/ns#" xmlns:rdf="http://www.w3.org/1999/02/22-rdf-syntax-ns#" xmlns:svg="http://www.w3.org/2000/svg" xmlns="http://www.w3.org/2000/svg" xmlns:sodipodi="http://sodipodi.sourceforge.net/DTD/sodipodi-0.dtd" xmlns:inkscape="http://www.inkscape.org/namespaces/inkscape" width="744.094" height="1052.362" id="svg2" version="1.1" inkscape:version="0.48" sodipodi:docname="terrific-micro.svg">
  <defs id="defs4"/>
  <sodipodi:namedview id="base" pagecolor="#ffffff" bordercolor="#666666" borderopacity="1" inkscape:pageopacity="0" inkscape:pageshadow="2" inkscape:zoom="3.33" inkscape:cx="270.792" inkscape:cy="935.619" inkscape:document-units="px" inkscape:current-layer="layer1" showgrid="false" inkscape:window-width="958" inkscape:window-height="778" inkscape:window-x="50" inkscape:window-y="50" inkscape:window-maximized="0"/>
  <metadata id="metadata7">
    <rdf:RDF>
      <cc:Work rdf:about="">
        <dc:format>
          image/svg+xml
        </dc:format>
        <dc:type rdf:resource="http://purl.org/dc/dcmitype/StillImage"/>
      </cc:Work>
    </rdf:RDF>
  </metadata>
  <g inkscape:label="Layer 1" inkscape:groupmode="layer" id="layer1">
    <path d="m204.363 365.825c-11.751-15.28-26.806-34.719-48.508-32.139-30.593 1.842-47.306 35.578-77.629 38.846-25.574 4.659-54.619-13.109-57.71-39.711-1.876-14.504 2.598-29.055 12.9-39.607 4.037 1.243 8.265 7.843 12.377 11.171 9.157 5.07 3.889 10.391 0.673 17.837-4.304 18.508 19.363 30.304 34.482 22.909 24.487-12.823 44.358-37.955 74.296-37.449 28.727-3.018 52.365 18.011 67.911 39.82 9.057 7.845 9.432 15.952-2.61 20.305-7.931 5.857-10.758 8.445-16.182-1.983zM60.024 285.602C51.456 275.896 32.858 265.356 49.841 254.127 86.213 208.631 122.886 163.377 159.435 118.024c22.532 22.687 45.465 44.991 67.514 68.146-48.715 40.185-98.481 79.085-147.603 118.773-6.44-6.447-12.881-12.893-19.321-19.34zm152.111-151.889c-13.763-13.766-27.525-27.531-41.288-41.297 2.563-33.409 26.869-64.675 60.361-71.445 33.293-8.278 70.64 7.906 86.442 38.53 9.902 17.384 11.491 38.759 6.787 57.91-8.732 30.819-38.19 56.685-70.548 56.575-14.547-12.737-27.975-26.721-41.754-40.273z" id="path3020" inkscape:connector-curvature="0" fill="#000"/>
  </g>
</svg>
